<?xml version="1.0" encoding="UTF-8"?>
<!DOCTYPE svg PUBLIC "-//W3C//DTD SVG 1.1//EN" "http://www.w3.org/Graphics/SVG/1.1/DTD/svg11.dtd">
<!-- Creator: CorelDRAW -->
<svg xmlns="http://www.w3.org/2000/svg" xml:space="preserve" width="512px" height="512px" version="1.1" style="shape-rendering:geometricPrecision; text-rendering:geometricPrecision; image-rendering:optimizeQuality; fill-rule:evenodd; clip-rule:evenodd"
viewBox="0 0 512 512"
 xmlns:xlink="http://www.w3.org/1999/xlink">
 <defs>
  <style type="text/css">
   <![CDATA[
    .fil3 {fill:#05AAC0}
    .fil2 {fill:#FB4A59}
    .fil1 {fill:#FF9300}
    .fil0 {fill:#FFB500}
   ]]>
  </style>
 </defs>
 <g id="Layer_x0020_1">
  <metadata id="CorelCorpID_0Corel-Layer"/>
  <g id="_483709864">
   <path class="fil0" d="M505 232l-218 0c-3,0 -5,-2 -6,-4 -1,-2 -1,-5 0,-7l127 -177c1,-2 3,-3 5,-3 2,0 4,0 5,1 29,21 52,48 68,79 17,32 26,67 26,104 0,4 -3,7 -7,7z"/>
   <g>
    <path class="fil1" d="M225 481c-60,0 -116,-24 -159,-66 -42,-43 -66,-99 -66,-159 0,-60 24,-116 66,-159 43,-42 99,-66 159,-66 48,0 94,15 131,42 3,3 4,7 2,10l-119 166 204 0c4,0 7,3 7,7 0,60 -24,116 -66,159 -43,43 -99,66 -159,66z"/>
    <path class="fil0" d="M225 441c-50,0 -96,-19 -131,-54 -35,-35 -54,-81 -54,-131 0,-50 19,-96 54,-131 35,-35 81,-54 131,-54 39,0 76,12 107,33 0,1 7,5 7,5 -1,2 -2,3 -4,6l-96 134 159 0 5 0 7 0 0 7c0,50 -19,96 -54,131 -35,35 -81,54 -131,54z"/>
    <path class="fil2" d="M248 389c-11,0 -20,-8 -20,-19 0,-11 9,-20 20,-20 11,0 20,9 20,20 0,11 -9,19 -20,19z"/>
    <path class="fil2" d="M303 323c-11,0 -20,-9 -20,-20 0,-11 9,-20 20,-20 11,0 20,9 20,20 0,11 -9,20 -20,20z"/>
    <path class="fil2" d="M93 242c-11,0 -20,-9 -20,-20 0,-11 9,-20 20,-20 11,0 20,9 20,20 0,11 -9,20 -20,20z"/>
    <path class="fil2" d="M182 161c-11,0 -20,-9 -20,-20 0,-11 9,-19 20,-19 11,0 20,8 20,19 0,11 -9,20 -20,20z"/>
    <path class="fil2" d="M160 336c-11,0 -20,-9 -20,-20 0,-11 9,-20 20,-20 11,0 19,9 19,20 0,11 -8,20 -19,20z"/>
    <path class="fil2" d="M405 168c-11,0 -20,-9 -20,-20 0,-11 9,-20 20,-20 11,0 20,9 20,20 0,11 -9,20 -20,20z"/>
    <path class="fil2" d="M365 208c-11,0 -19,-9 -19,-20 0,-11 8,-20 19,-20 11,0 20,9 20,20 0,11 -9,20 -20,20z"/>
    <path class="fil3" d="M132 266c-1,0 -2,0 -3,0 -3,-2 -5,-6 -3,-10l14 -35c1,-3 5,-5 9,-3 3,1 5,5 4,9l-14 35c-2,2 -4,4 -7,4z"/>
    <path class="fil3" d="M223 188c-2,0 -5,-1 -6,-3l-7 -12c-2,-4 -1,-8 2,-10 4,-2 8,-1 10,2l7 12c2,4 1,8 -3,10 -1,1 -2,1 -3,1z"/>
    <path class="fil3" d="M231 131c-3,0 -5,-1 -6,-4 -2,-3 -1,-7 3,-9l21 -11c3,-2 7,-1 9,3 2,3 1,7 -3,9l-21 11c-1,1 -2,1 -3,1z"/>
    <path class="fil3" d="M139 186c-3,0 -7,-3 -7,-6l-3 -28c0,-4 2,-8 6,-8 4,0 7,2 8,6l3 28c0,4 -3,8 -6,8 0,0 -1,0 -1,0z"/>
    <path class="fil3" d="M201 294c-1,0 -1,0 -2,0l-14 -4c-4,-1 -6,-5 -5,-9 1,-4 5,-6 9,-5l14 4c4,1 6,5 5,9 -1,3 -4,5 -7,5z"/>
    <path class="fil3" d="M193 404c-2,0 -4,-1 -6,-3l-20 -29c-2,-3 -1,-8 2,-10 3,-2 7,-1 10,2l20 29c2,3 1,8 -2,10 -1,1 -3,1 -4,1z"/>
    <path class="fil3" d="M306 356c-1,0 -2,0 -3,-1l-23 -13c-4,-2 -5,-6 -3,-9 2,-4 6,-5 9,-3l23 13c4,2 5,6 3,9 -1,3 -4,4 -6,4z"/>
    <path class="fil3" d="M352 312c-3,0 -7,-3 -7,-6l-2 -19c0,-4 2,-8 6,-8 4,0 8,2 8,6l2 19c0,4 -3,8 -6,8 -1,0 -1,0 -1,0z"/>
    <path class="fil3" d="M244 323c-1,0 -1,0 -2,0 -4,-1 -6,-5 -5,-9l5 -18c1,-4 5,-6 9,-5 3,1 6,5 5,9l-5 18c-1,3 -4,5 -7,5z"/>
    <path class="fil3" d="M107 340c-2,0 -4,-1 -5,-2l-14 -16c-3,-3 -3,-8 0,-10 3,-3 8,-3 10,0l14 16c3,3 3,8 0,10 -2,1 -3,2 -5,2z"/>
    <path class="fil3" d="M202 249c-3,0 -6,-2 -7,-5l-10 -28c-1,-3 1,-7 5,-9 3,-1 7,1 8,5l10 28c2,3 0,7 -4,9 0,0 -1,0 -2,0z"/>
    <path class="fil3" d="M421 197c-2,0 -4,-1 -6,-3l-7 -10c-2,-3 -1,-8 2,-10 3,-2 7,-1 10,2l7 10c2,3 1,7 -2,10 -1,1 -3,1 -4,1z"/>
    <path class="fil3" d="M367 158c-1,0 -1,0 -2,0 -4,-2 -6,-6 -5,-9l4 -12c2,-4 6,-6 9,-5 4,2 6,6 5,9l-4 12c-1,3 -4,5 -7,5z"/>
   </g>
   <path class="fil1" d="M512 225c0,-37 -9,-72 -26,-104 -16,-31 -39,-58 -68,-79 -1,-1 -3,-1 -5,-1 -2,0 -4,1 -5,3l-21 29c50,39 78,96 79,159l39 0c4,0 7,-3 7,-7z"/>
  </g>
 </g>
</svg>
